<svg width="295" height="100" viewBox="0 0 295 100" fill="none" xmlns="http://www.w3.org/2000/svg">
<rect x="123" y="11" width="150" height="89" rx="5" fill="white"/>
<path d="M273 95V16C273 13.2386 270.761 11 268 11H229L200 69.5L127.5 100H268C270.761 100 273 97.7614 273 95Z" fill="#F1F1F1"/>
<path d="M199.686 67.4812C198.669 68.1729 197.331 68.1729 196.314 67.4812L127.898 20.9812C126.808 20.2408 126.329 18.8766 126.717 17.6178C127.104 16.359 128.267 15.5 129.584 15.5H266.416C267.733 15.5 268.896 16.359 269.283 17.6178C269.671 18.8766 269.192 20.2408 268.102 20.9812L199.686 67.4812Z" fill="#DADADA" stroke="#DADADA" stroke-width="6" stroke-linecap="round" stroke-linejoin="round"/>
<path d="M199.439 67.0446C198.576 67.6518 197.424 67.6518 196.561 67.0446L127.279 18.2946C126.388 17.6673 126.006 16.5347 126.335 15.4955C126.664 14.4563 127.628 13.75 128.718 13.75H267.282C268.372 13.75 269.336 14.4563 269.665 15.4955C269.994 16.5347 269.612 17.6673 268.721 18.2946L199.439 67.0446Z" fill="white" stroke="white" stroke-width="5" stroke-linecap="round" stroke-linejoin="round"/>
<path d="M228 76.5L241.5 90L270 61.5M243 78.5L254.5 90L270 74.5" stroke="#DADADA" stroke-width="6" stroke-linecap="round" stroke-linejoin="round"/>
<path d="M229.5 73L243 86.5L279 50.5M244.5 75L256 86.5L292 50.5" stroke="#FFCC53" stroke-width="6" stroke-linecap="round" stroke-linejoin="round"/>
<line x1="101.5" y1="44.5" x2="52.5" y2="44.5" stroke="#63A9FF" stroke-width="5" stroke-linecap="round"/>
<line x1="89.5" y1="69.5" x2="2.5" y2="69.5" stroke="#3D93FC" stroke-width="5" stroke-linecap="round"/>
</svg>
